<svg id="Layer_1" data-name="Layer 1" xmlns="http://www.w3.org/2000/svg" viewBox="0 0 7138.33 1181.12"><defs><style>.cls-1{fill:#e6e6e6;}.cls-2{fill:#fff;}</style></defs><title>Artboard 1</title><path class="cls-1" d="M461.94,708.15,676.71,82.24h134V708.15L1030.58,82.24h71.59L817.85,844.17H666.49V323.6L464,844.17H313.64V145.65C202.16,180.42,148,260.19,148,372.69c0,52.16,13.29,60.34,14.32,69.55-70.57,0-109.44-25.57-109.44-99.21,0-136,188.19-265.91,359-265.91,14.32,0,27.62,1,40.91,2Z"/><path class="cls-1" d="M1242.28,764.4c80.8,0,129.89-45,181-103.3h34.77c-58.3,94.1-145.23,189.21-281.25,189.21-96.14,0-159.55-47-159.55-162.61,0-117.62,66.48-364.1,276.14-364.1,91,0,112.5,47,112.5,98.18,0,117.62-112.5,208.64-235.23,215.8-1,14.32-2,28.64-2,40.91C1168.64,748,1193.19,764.4,1242.28,764.4Zm59.32-386.59c-52.16,0-102.27,109.43-122.73,210.68,78.75-5.11,148.3-83.86,148.3-168.75C1327.17,394.17,1321,377.81,1301.6,377.81Z"/><path class="cls-1" d="M1532.73,148.71l151.36-20.45L1635,358.37c41.93-25.56,63.41-28.63,83.87-28.63,71.59,0,120.68,45,120.68,174.89,0,119.66-63.41,345.68-280.23,345.68-94.09,0-143.18-49.09-143.18-130.91a251.38,251.38,0,0,1,7.15-58.3Zm149.32,253.64c-14.32,0-49.09,5.12-60.34,18.41l-56.26,259.78a99.34,99.34,0,0,0-3.06,23.52c0,29.66,17.38,47,54.2,47,66.48,0,119.66-143.18,119.66-250.56C1736.25,450.42,1718.87,402.35,1682.05,402.35Z"/><path class="cls-1" d="M2264,173.26,2141.24,747c19.43,14.32,38.87,20.46,58.3,20.46,121.7,0,196.36-243.41,196.36-450,0-139.1-60.34-193.3-149.32-193.3-152.38,0-267.95,93.07-267.95,248.52,0,52.16,13.29,60.34,14.32,69.55-67.51,0-109.44-25.57-109.44-95.12,0-140.11,172.84-270,380.46-270,198.41,0,273.07,138.07,273.07,294.55,0,235.23-131.93,485.8-283.3,485.8-38.86,0-80.79-16.36-124.77-54.2l-8.18,40.9H1973.51L2112.6,193.71Z"/><path class="cls-1" d="M2767.15,764.4c80.8,0,129.89-45,181-103.3H2983c-58.3,94.1-145.23,189.21-281.25,189.21-96.14,0-159.55-47-159.55-162.61,0-117.62,66.48-364.1,276.14-364.1,91,0,112.5,47,112.5,98.18,0,117.62-112.5,208.64-235.23,215.8-1,14.32-2,28.64-2,40.91C2693.52,748,2718.06,764.4,2767.15,764.4Zm59.32-386.59c-52.16,0-102.27,109.43-122.73,210.68,78.75-5.11,148.3-83.86,148.3-168.75C2852,394.17,2845.9,377.81,2826.47,377.81Z"/><path class="cls-1" d="M3381.81,661.1c-53.19,61.37-109.44,100.23-156.48,127.85-43,45-108.41,61.36-160.57,61.36-104.32,0-149.32-68.52-149.32-130.91,0-47,26.59-81.82,54.2-95.11,57.28-101.25,94.1-202.51,125.8-302.73l151.37-20.46c12.27,264.89,22.5,304.78,22.5,372.28,0,14.32-1,26.59-4.1,38.86,27.62-16.36,54.21-34.77,73.64-51.14Zm-384.55,50.12c-10.23,0-22.5-3.07-27.62-13.3,0,48.07,17.39,71.59,62.39,71.59s89-23.52,89-95.11c0-53.18-9.21-84.89-19.43-242.39-20.46,66.48-49.09,127.84-82.84,193.3,13.29,6.14,23.52,18.41,23.52,35.79C3042.26,685.65,3023.85,711.22,2997.26,711.22Z"/><path class="cls-1" d="M3555.66,332.81,3482,680.54a141.87,141.87,0,0,0-4.1,32.72c0,28.64,13.3,37.84,41.94,37.84,39.88,0,76.7-38.86,92-90h43c-58.3,166.71-159.55,189.21-214.78,189.21-61.36,0-109.43-36.82-109.43-122.73,0-19.43,3.07-41.93,8.18-66.48l69.55-328.29Zm-46-217.85a82.06,82.06,0,0,1,81.82,81.82c0,45-36.82,80.8-81.82,80.8a80.32,80.32,0,0,1-80.8-80.8C3428.84,151.78,3464.64,115,3509.64,115Z"/><path class="cls-1" d="M4102.83,332.81,4001.57,807.36c62.39-22.5,100.23-57.28,128.87-146.26h43c-39.88,135-117.61,173.87-181,191.26L3977,926c-30.68,146.25-116.59,173.87-184.09,173.87-62.39,0-114.55-32.73-114.55-99.21,0-85.91,90-128.86,166.71-152.38l12.27-54.21c-29.66,31.71-69.55,56.25-122.73,56.25-69.55,0-136-42.95-136-164.66,0-138.07,84.88-358,262.84-358,58.3,0,82.84,22.5,82.84,52.16V386l11.25-53.18Zm-333.42,687.27c21.48,0,46-30.68,59.32-91l6.14-29.66c-52.16,19.43-100.23,46-100.23,86.93C3734.64,1000.65,3746.91,1020.08,3769.41,1020.08ZM3750,671.33c0,78.75,32.73,79.77,51.14,79.77,27.61,0,67.5-27.61,81.82-79.77l52.16-242.39c-1-11.25-9.21-37.84-41.94-37.84C3806.23,391.1,3750,575.19,3750,671.33Z"/><path class="cls-1" d="M4388.16,421.78c-36.82,0-64.43,43-79.77,94.1l-69.55,328.29H4091.57L4200,332.81h147.27L4336,386c43-49.09,88-57.27,119.66-57.27,65.46,0,113.52,33.75,113.52,115.56,0,82.85-49.09,206.6-49.09,263.87,0,25.57,10.23,43,40.91,43,45,0,63.41-36.81,85.91-90h43c-57.28,167.73-136,189.21-190.23,189.21-89,0-120.68-57.27-120.68-115.57,0-69.54,46-195.34,46-260.8C4425,440.19,4412.71,421.78,4388.16,421.78Z"/><path class="cls-1" d="M4858.61,764.4c80.8,0,129.89-45,181-103.3h34.78c-58.3,94.1-145.23,189.21-281.25,189.21-96.14,0-159.55-47-159.55-162.61,0-117.62,66.48-364.1,276.14-364.1,91,0,112.5,47,112.5,98.18,0,117.62-112.5,208.64-235.23,215.8-1,14.32-2.05,28.64-2.05,40.91C4785,748,4809.52,764.4,4858.61,764.4Zm59.32-386.59c-52.16,0-102.27,109.43-122.73,210.68,78.75-5.11,148.3-83.86,148.3-168.75C4943.5,394.17,4937.36,377.81,4917.93,377.81Z"/><path class="cls-1" d="M5256.44,332.81l-13.29,63.41c35.79-30.69,74.66-63.41,123.75-63.41,46,0,70.57,37.84,70.57,76.7,0,35.8-23.52,74.66-73.64,74.66-57.27,0-28.64-67.5-59.32-67.5s-49.09,15.34-74.66,38.86L5148,844.17H5000.76l108.41-511.36Z"/><path class="cls-1" d="M5810.76,173.26l-72.61,341.59c103.29-8.18,179-142.16,179-251.59,0-75.68-36.81-139.09-126.81-139.09-165.69,0-264.89,93.07-264.89,248.52,0,52.16,13.29,60.34,14.32,69.55-70.57,0-109.44-25.57-109.44-99.21,0-136,188.19-265.91,359-265.91,167.73,0,241.37,96.14,241.37,201.48,0,129.89-111.48,274.09-295.57,274.09H5730l-62.38,291.48H5520.3l139.1-650.46Z"/><path class="cls-1" d="M6501.11,332.81l-73.64,347.73a141.78,141.78,0,0,0-4.09,32.72c0,28.64,13.3,44,41.93,44,39.89,0,67.5-45,82.84-96.14h43c-58.3,166.71-150.34,189.21-205.57,189.21-57.27,0-94.09-32.73-100.23-94.09-31.7,47-79.77,94.09-152.39,94.09-69.54,0-136-42.95-136-164.66,0-138.07,84.89-358,262.84-358,58.3,0,82.84,22.5,82.84,52.16V387l11.25-54.2ZM6148.26,671.33c0,78.75,32.73,79.77,51.14,79.77,29.66,0,72.62-30.68,84.89-90L6333.38,430c0-12.28-9.21-38.87-41.93-38.87C6204.51,391.1,6148.26,575.19,6148.26,671.33Z"/><path class="cls-1" d="M6964.4,680.54c-2,10.22-4.1,20.45-4.1,29.66,0,23.52,10.23,40.9,41.94,40.9,18.41,0,26.59-3.06,32.72-6.13-5.11,72.61-57.27,105.34-112.5,105.34-52.16,0-94.09-25.57-106.36-84.89-30.68,44-77.73,84.89-145.23,84.89-69.54,0-136-42.95-136-164.66,0-138.07,84.88-358,262.84-358,58.3,0,82.84,22.5,82.84,52.16v4.09l50.12-235.23L7082,128.26ZM6871.33,426.9c-2.05-12.27-11.25-35.8-41.94-35.8-86.93,0-143.18,184.09-143.18,280.23,0,78.75,32.73,79.77,51.14,79.77,26.59,0,68.52-23.52,79.77-73.63Z"/><path class="cls-2" d="M502.94,693.15,717.71,67.24h134V693.15L1071.58,67.24h71.59L858.85,829.17H707.49V308.6L505,829.17H354.64V130.65C243.16,165.42,189,245.19,189,357.69c0,52.16,13.29,60.34,14.32,69.55-70.57,0-109.44-25.57-109.44-99.21,0-136,188.19-265.91,359-265.91,14.32,0,27.62,1,40.91,2.05Z"/><path class="cls-2" d="M1283.28,749.4c80.8,0,129.89-45,181-103.3h34.77c-58.3,94.1-145.23,189.21-281.25,189.21-96.14,0-159.55-47-159.55-162.61,0-117.62,66.48-364.1,276.14-364.1,91,0,112.5,47,112.5,98.18,0,117.62-112.5,208.64-235.23,215.8-1,14.32-2,28.64-2,40.91C1209.64,733,1234.19,749.4,1283.28,749.4Zm59.32-386.59c-52.16,0-102.27,109.43-122.73,210.68,78.75-5.11,148.3-83.86,148.3-168.75C1368.17,379.17,1362,362.81,1342.6,362.81Z"/><path class="cls-2" d="M1573.73,133.71l151.36-20.45L1676,343.37c41.93-25.56,63.41-28.63,83.87-28.63,71.59,0,120.68,45,120.68,174.89,0,119.66-63.41,345.68-280.23,345.68-94.09,0-143.18-49.09-143.18-130.91a251.38,251.38,0,0,1,7.15-58.3Zm149.32,253.64c-14.32,0-49.09,5.12-60.34,18.41l-56.26,259.78a99.34,99.34,0,0,0-3.06,23.52c0,29.66,17.38,47,54.2,47,66.48,0,119.66-143.18,119.66-250.56C1777.25,435.42,1759.87,387.35,1723.05,387.35Z"/><path class="cls-2" d="M2305,158.26,2182.24,732c19.43,14.32,38.87,20.46,58.3,20.46,121.7,0,196.36-243.41,196.36-450,0-139.1-60.34-193.3-149.32-193.3-152.38,0-267.95,93.07-267.95,248.52,0,52.16,13.29,60.34,14.32,69.55-67.51,0-109.44-25.57-109.44-95.12,0-140.11,172.84-270,380.46-270,198.41,0,273.07,138.07,273.07,294.55,0,235.23-131.93,485.8-283.3,485.8-38.86,0-80.79-16.36-124.77-54.2l-8.18,40.9H2014.51L2153.6,178.71Z"/><path class="cls-2" d="M2808.15,749.4c80.8,0,129.89-45,181-103.3H3024c-58.3,94.1-145.23,189.21-281.25,189.21-96.14,0-159.55-47-159.55-162.61,0-117.62,66.48-364.1,276.14-364.1,91,0,112.5,47,112.5,98.18,0,117.62-112.5,208.64-235.23,215.8-1,14.32-2,28.64-2,40.91C2734.52,733,2759.06,749.4,2808.15,749.4Zm59.32-386.59c-52.16,0-102.27,109.43-122.73,210.68,78.75-5.11,148.3-83.86,148.3-168.75C2893,379.17,2886.9,362.81,2867.47,362.81Z"/><path class="cls-2" d="M3422.81,646.1c-53.19,61.37-109.44,100.23-156.48,127.85-43,45-108.41,61.36-160.57,61.36-104.32,0-149.32-68.52-149.32-130.91,0-47,26.59-81.82,54.2-95.11,57.28-101.25,94.1-202.51,125.8-302.73l151.37-20.46c12.27,264.89,22.5,304.78,22.5,372.28,0,14.32-1,26.59-4.1,38.86,27.62-16.36,54.21-34.77,73.64-51.14Zm-384.55,50.12c-10.23,0-22.5-3.07-27.62-13.3,0,48.07,17.39,71.59,62.39,71.59s89-23.52,89-95.11c0-53.18-9.21-84.89-19.43-242.39-20.46,66.48-49.09,127.84-82.84,193.3,13.29,6.14,23.52,18.41,23.52,35.79C3083.26,670.65,3064.85,696.22,3038.26,696.22Z"/><path class="cls-2" d="M3596.66,317.81,3523,665.54a141.87,141.87,0,0,0-4.1,32.72c0,28.64,13.3,37.84,41.94,37.84,39.88,0,76.7-38.86,92-90h43c-58.3,166.71-159.55,189.21-214.78,189.21-61.36,0-109.43-36.82-109.43-122.73,0-19.43,3.07-41.93,8.18-66.48l69.55-328.29Zm-46-217.85a82.06,82.06,0,0,1,81.82,81.82c0,45-36.82,80.8-81.82,80.8a80.32,80.32,0,0,1-80.8-80.8C3469.84,136.78,3505.64,100,3550.64,100Z"/><path class="cls-2" d="M4143.83,317.81,4042.57,792.36c62.39-22.5,100.23-57.28,128.87-146.26h43c-39.88,135-117.61,173.87-181,191.26L4018,911c-30.68,146.25-116.59,173.87-184.09,173.87-62.39,0-114.55-32.73-114.55-99.21,0-85.91,90-128.86,166.71-152.38l12.27-54.21c-29.66,31.71-69.55,56.25-122.73,56.25-69.55,0-136-42.95-136-164.66,0-138.07,84.88-358,262.84-358,58.3,0,82.84,22.5,82.84,52.16V371l11.25-53.18Zm-333.42,687.27c21.48,0,46-30.68,59.32-91l6.14-29.66c-52.16,19.43-100.23,46-100.23,86.93C3775.64,985.65,3787.91,1005.08,3810.41,1005.08ZM3791,656.33c0,78.75,32.73,79.77,51.14,79.77,27.61,0,67.5-27.61,81.82-79.77l52.16-242.39c-1-11.25-9.21-37.84-41.94-37.84C3847.23,376.1,3791,560.19,3791,656.33Z"/><path class="cls-2" d="M4429.16,406.78c-36.82,0-64.43,43-79.77,94.1l-69.55,328.29H4132.57L4241,317.81h147.27L4377,371c43-49.09,88-57.27,119.66-57.27,65.46,0,113.52,33.75,113.52,115.56,0,82.85-49.09,206.6-49.09,263.87,0,25.57,10.23,43,40.91,43,45,0,63.41-36.81,85.91-90h43c-57.28,167.73-136,189.21-190.23,189.21-89,0-120.68-57.27-120.68-115.57,0-69.54,46-195.34,46-260.8C4466,425.19,4453.71,406.78,4429.16,406.78Z"/><path class="cls-2" d="M4899.61,749.4c80.8,0,129.89-45,181-103.3h34.78c-58.3,94.1-145.23,189.21-281.25,189.21-96.14,0-159.55-47-159.55-162.61,0-117.62,66.48-364.1,276.14-364.1,91,0,112.5,47,112.5,98.18,0,117.62-112.5,208.64-235.23,215.8-1,14.32-2.05,28.64-2.05,40.91C4826,733,4850.52,749.4,4899.61,749.4Zm59.32-386.59c-52.16,0-102.27,109.43-122.73,210.68,78.75-5.11,148.3-83.86,148.3-168.75C4984.5,379.17,4978.36,362.81,4958.93,362.81Z"/><path class="cls-2" d="M5297.44,317.81l-13.29,63.41c35.79-30.69,74.66-63.41,123.75-63.41,46,0,70.57,37.84,70.57,76.7,0,35.8-23.52,74.66-73.64,74.66-57.27,0-28.64-67.5-59.32-67.5s-49.09,15.34-74.66,38.86L5189,829.17H5041.76l108.41-511.36Z"/><path class="cls-2" d="M5851.76,158.26l-72.61,341.59c103.29-8.18,179-142.16,179-251.59,0-75.68-36.81-139.09-126.81-139.09-165.69,0-264.89,93.07-264.89,248.52,0,52.16,13.29,60.34,14.32,69.55-70.57,0-109.44-25.57-109.44-99.21,0-136,188.19-265.91,359-265.91,167.73,0,241.37,96.14,241.37,201.48,0,129.89-111.48,274.09-295.57,274.09H5771l-62.38,291.48H5561.3l139.1-650.46Z"/><path class="cls-2" d="M6542.11,317.81l-73.64,347.73a141.78,141.78,0,0,0-4.09,32.72c0,28.64,13.3,44,41.93,44,39.89,0,67.5-45,82.84-96.14h43c-58.3,166.71-150.34,189.21-205.57,189.21-57.27,0-94.09-32.73-100.23-94.09-31.7,47-79.77,94.09-152.39,94.09-69.54,0-136-42.95-136-164.66,0-138.07,84.89-358,262.84-358,58.3,0,82.84,22.5,82.84,52.16V372l11.25-54.2ZM6189.26,656.33c0,78.75,32.73,79.77,51.14,79.77,29.66,0,72.62-30.68,84.89-90L6374.38,415c0-12.28-9.21-38.87-41.93-38.87C6245.51,376.1,6189.26,560.19,6189.26,656.33Z"/><path class="cls-2" d="M7005.4,665.54c-2,10.22-4.1,20.45-4.1,29.66,0,23.52,10.23,40.9,41.94,40.9,18.41,0,26.59-3.06,32.72-6.13-5.11,72.61-57.27,105.34-112.5,105.34-52.16,0-94.09-25.57-106.36-84.89-30.68,44-77.73,84.89-145.23,84.89-69.54,0-136-42.95-136-164.66,0-138.07,84.88-358,262.84-358,58.3,0,82.84,22.5,82.84,52.16v4.09l50.12-235.23L7123,113.26ZM6912.33,411.9c-2.05-12.27-11.25-35.8-41.94-35.8-86.93,0-143.18,184.09-143.18,280.23,0,78.75,32.73,79.77,51.14,79.77,26.59,0,68.52-23.52,79.77-73.63Z"/></svg>